<svg width="553" height="575" viewBox="0 0 553 575" fill="none" xmlns="http://www.w3.org/2000/svg">
<g clip-path="url(#clip0_71_30)">
<mask id="mask0_71_30" style="mask-type:luminance" maskUnits="userSpaceOnUse" x="0" y="0" width="553" height="575">
<path d="M0 0H552.376V575H0V0Z" fill="white"/>
</mask>
<g mask="url(#mask0_71_30)">
<path d="M92.1474 0.894736C124.168 6.03021 118.401 31.1594 130.393 46.9753C134.668 49.0989 138.172 48.4604 142.885 48.1481C149.304 42.6795 150.026 27.3425 154.516 19.8891C186.411 -33.0618 207.376 36.1908 213.248 62.0902C231.041 79.3774 238.293 86.803 251.236 107.421C261.937 110.28 305.527 113.945 307.581 115.86C307.386 116.519 307.213 117.193 307.046 117.866C306.699 119.288 306.318 122.973 307.067 123.313C320.412 129.469 333.362 136.013 345.66 143.994C422.303 193.781 467.447 275.782 449.938 367.811C447.564 380.282 438.827 394.099 436.613 406.736C432.581 429.777 432.616 460.61 444.802 481.333C453.768 495.205 462.686 498.835 477.28 502.277C496.67 498.46 512.91 483.068 531.134 489.376C570.052 502.853 548.219 547.046 520.654 559.607C490.48 573.348 467.003 572.036 437.057 562.64C435.093 561.814 433.15 560.933 431.235 560.003C399.402 544.471 387.139 521.417 376.23 489.529C358.783 514.803 346.312 546.213 324.195 567.13C304.721 585.548 291.286 565.076 268.683 573.806C260.445 576.991 247.454 558.802 243.304 553.611C221.173 577.859 223.525 579.615 191.234 569.989C181.428 570.648 173.989 576.27 163.954 572.342C154.807 569.017 147.486 556.699 143.856 547.976C126.021 505.136 107.547 463.067 79.6696 425.515C59.5649 398.242 35.2893 373.009 21.6109 341.627C-15.2743 257.356 -2.63688 153.578 45.3382 76.1434C61.6885 49.7512 62.0354 14.6912 92.1474 0.901676V0.894736Z" fill="black"/>
</g>
<path d="M95.0264 14.5539C109.066 29.0929 112.792 46.0955 118.448 64.8816C131.488 64.6526 144.299 64.5832 157.304 63.2993C163.092 53.764 163.793 22.7637 176.028 18.3708C191.664 23.5757 195.487 55.0895 198.104 69.4411C213.462 84.1327 229.978 99.0325 238.799 118.86C259.743 170.797 215.877 194.046 221.734 212.082L224.336 213.581C236.301 209.501 236.557 208.578 243.518 197.655C252.741 182.498 257.467 172.109 259.778 154.634C270.236 155.176 302.881 160.207 309.349 156.133L309.696 153.163C300.237 142.15 268.592 149.638 260.063 140.484L260.174 137.368C263.102 132.594 269.293 130.29 274.449 127.75C299.89 136.015 318.746 144.461 340.551 159.59C387.402 192.568 416.403 227.746 432.469 282.841C441.671 339.185 440.269 375.883 405.501 424.261C404.078 426.232 402.565 428.133 400.969 429.972C371.412 470.3 343.695 508.15 317.975 551.295C313.853 558.207 299.994 560.948 292.944 554.14C285.233 539.469 292.874 493.389 294.831 475.727C273.658 452.034 280.306 439.778 266.78 414.975C265.281 412.234 263.47 412.546 260.826 412.297C249.292 424.407 263.074 438.141 257.724 446.156C252.928 446.184 251.298 446.267 246.516 447.072C234.135 461.021 248.161 546.451 212.594 558.512C188.881 556.097 197.174 516.651 192.42 500.37C187.541 483.673 183.787 431.562 162.835 430.41C161.454 431.395 156.284 435.233 157.436 437.356C165.632 452.457 193.808 548.713 174.793 557.617C159.005 554.542 152.551 525.86 145.979 511.807C139.58 498.122 132.793 483.964 126.415 470.251C100.203 413.886 48.4878 374.072 28.3762 315.271C8.78505 255.443 12.8934 176.072 40.8054 119.713C47.1276 102.787 57.5513 87.1932 65.2822 70.829C75.2409 49.7597 78.7455 32.1186 95.0194 14.54L95.0264 14.5539Z" fill="white"/>
<path d="M259.779 154.641C270.237 155.183 302.882 160.214 309.35 156.133L309.697 153.163C300.238 142.157 268.592 149.645 260.063 140.491L259.161 132.579C267.822 133.911 269.855 125.313 275.817 127.249C301.258 135.515 318.747 144.461 340.552 159.59C387.402 192.568 416.404 227.746 432.47 282.848C441.672 339.192 440.27 375.89 405.501 424.268C404.079 426.239 402.566 428.14 400.97 429.972C360.878 417.626 353.543 395.28 354.646 356.264C324.5 340.358 308.288 331.906 286.622 303.751C268.009 279.552 260.292 236.795 265.282 207.294C255.657 204.122 252.27 202.36 243.505 197.661C252.735 182.505 257.461 172.116 259.765 154.641H259.779Z" fill="#FFDF61"/>
<path d="M437.864 283C447.65 340.445 446.152 377.861 409.187 427.185C407.667 429.194 406.066 431.132 404.368 433C361.728 420.413 353.936 397.63 355.109 357.851C359.743 326.118 375.336 290.259 413.474 284.182C421.429 282.914 429.319 285.809 437.85 283H437.864Z" fill="black"/>
<path d="M270.486 158.561C283.144 159.894 309.793 162.559 313.673 156.292L314.02 153.322C305.796 141.906 278.772 144.571 264.386 140.573L261.159 123.917C264.088 119.15 273.817 123.918 278.772 127.915C304.214 136.18 323.069 144.619 344.874 159.748C336.283 196.987 304.339 212.505 268.488 208.528C258.855 205.357 254.594 203.899 245.836 199.201C255.066 184.044 260.854 175.37 263.158 157.895L270.486 158.561Z" fill="black"/>
<path d="M95.2697 11.9922C109.401 26.2641 114.893 40.853 120.586 59.2941C133.712 59.0693 148.135 60.5544 161.226 59.2941L159.227 62.6252L155.896 63.9577C153.897 65.2901 148.559 66.7968 149.9 71.2861C149.25 84.3046 147.972 91.4073 139.24 101.932C133.687 97.7565 131.287 98.2367 124.392 97.5214C113.467 100.9 110.266 108.049 109.26 118.588C104.597 121.253 102.598 120.23 96.9051 119.92C81.1323 119.062 56.3763 101.834 41.2322 114.518L38.6406 115.24C45.0112 98.6182 55.5032 83.3108 63.2778 67.2473C73.3017 46.5649 76.8363 29.2479 93.2099 11.9922H95.2697Z" fill="black"/>
<path d="M157.298 63.2996C163.086 53.7643 163.793 22.764 176.021 18.3711C191.657 23.576 195.488 55.0898 198.104 69.4413C213.455 84.133 229.972 99.0328 238.792 118.86C234.247 119.269 225.148 119.79 221.241 121.15C215.467 101.712 200.769 91.163 191.24 115.973C170.719 101.372 164.251 94.4317 150.788 73.3207C149.456 68.7543 149.4 70.5448 150.559 66.3184L157.291 63.3065L157.298 63.2996Z" fill="#FFDF61"/>
<path d="M112.654 122.03C113.654 111.294 115.153 105.125 126.007 101.683C132.856 102.411 133.661 103.161 139.178 107.401C152.066 136.347 121.01 147.916 112.654 122.03Z" fill="black"/>
<path d="M191.247 115.972C200.769 91.1621 215.467 101.718 221.248 121.149C218.021 130.192 217.271 133.766 207.16 136.306C194.148 135.168 192.677 126.666 191.247 115.965V115.972Z" fill="black"/>
<path d="M43.3955 118.991C58.4341 106.069 83.022 123.619 98.699 124.494C104.008 127.86 105.694 128.901 106.957 134.119C104.896 135.729 103.869 136.93 100.954 135.924C90.059 132.135 48.7878 125.66 43.3955 118.991Z" fill="black"/>
<path d="M67.7951 148.027C74.6933 147.673 81.9039 147.111 88.7743 147.868C94.4303 148.492 101.904 150.852 105.631 155.391L104.16 157.861C97.8447 160.727 90.6897 158.715 84.1107 157.653C73.9508 157.292 50.737 163.684 42.8533 159.846C40.8824 158.881 41.0351 157.5 40.4521 155.522L41.965 152.885C49.6335 149.117 59.3701 148.978 67.7882 148.027H67.7951Z" fill="black"/>
<path d="M166.027 133.974C170.531 133.711 174.653 133.523 178.783 135.737C182.829 137.909 184.564 139.686 185.993 143.961C183.745 147.875 182.364 148.298 178.456 150.255C173.696 150.394 166.964 150.484 162.592 148.569C159.053 147.021 158.484 146.293 157.033 142.76C159.427 137.757 161.468 136.979 166.027 133.981V133.974Z" fill="#DB7588"/>
<path d="M389.442 471.423L418.833 432.838C420.887 473.7 425.696 504.339 471.36 516.9C471.825 532.369 469.965 539.906 460.118 552.307C413.635 541.488 398.541 514.069 389.449 471.423H389.442Z" fill="#FFDF61"/>
<path d="M471.36 516.901C476.225 516.665 484.365 516.318 488.897 515.11C503.873 511.127 519.182 497.15 534.144 507.442C542.965 518.247 529.814 533.75 521.063 540.1C503.269 553.008 481.298 554.965 460.117 552.308C469.965 539.906 471.818 532.369 471.353 516.901H471.36Z" fill="black"/>
<path d="M258.862 459.902C267.634 461.811 273.193 473.144 277.975 480.063C276.524 494.261 275.379 551.55 273.353 558.448C269.189 557.282 265.899 556.206 263.061 552.702C245.33 530.834 256.538 486.059 258.862 459.902Z" fill="white"/>
<path d="M293.138 113.257L256.496 118.587V133.91L304.464 125.916C304.464 125.916 309.435 120.586 310.46 118.587C311.486 116.588 309.128 114.188 304.464 113.257C299.801 112.326 293.138 113.257 293.138 113.257Z" fill="black" stroke="black"/>
</g>
<defs>
<clipPath id="clip0_71_30">
<rect width="553" height="575" fill="white"/>
</clipPath>
</defs>
</svg>
