<svg xmlns="http://www.w3.org/2000/svg" viewBox="0 0 320 200" role="img" aria-labelledby="title desc">
  <title id="title">Admissions equity modeling icon</title>
  <desc id="desc">A document and a balance scale.</desc>
  <defs>
    <linearGradient id="bg" x1="0" y1="0" x2="1" y2="1">
      <stop offset="0%" stop-color="#f6f1ff" />
      <stop offset="100%" stop-color="#e7ddff" />
    </linearGradient>
  </defs>
  <rect width="320" height="200" rx="18" fill="url(#bg)" />
  <rect x="48" y="34" width="128" height="132" rx="10" fill="#ffffff" stroke="#6f5c9f" stroke-width="3" />
  <line x1="66" y1="66" x2="158" y2="66" stroke="#c5b8ea" stroke-width="6" stroke-linecap="round" />
  <line x1="66" y1="90" x2="146" y2="90" stroke="#d5caf2" stroke-width="6" stroke-linecap="round" />
  <line x1="66" y1="114" x2="136" y2="114" stroke="#e0d7f7" stroke-width="6" stroke-linecap="round" />
  <line x1="223" y1="58" x2="223" y2="128" stroke="#5c468f" stroke-width="6" stroke-linecap="round" />
  <line x1="194" y1="72" x2="254" y2="72" stroke="#5c468f" stroke-width="6" stroke-linecap="round" />
  <line x1="204" y1="72" x2="187" y2="107" stroke="#5c468f" stroke-width="4" />
  <line x1="244" y1="72" x2="261" y2="107" stroke="#5c468f" stroke-width="4" />
  <path d="M188 104 H212 C209 114 200 121 188 121 C176 121 167 114 164 104 Z" fill="#9c87d0" />
  <path d="M258 104 H282 C279 114 270 121 258 121 C246 121 237 114 234 104 Z" fill="#9c87d0" />
  <rect x="203" y="128" width="40" height="10" rx="5" fill="#5c468f" />
</svg>
