<svg xmlns="http://www.w3.org/2000/svg" viewBox="0 0 320 200" role="img" aria-labelledby="title desc">
  <title id="title">Causal inference in health data icon</title>
  <desc id="desc">A medical cross, nodes, and directional links representing causal relationships.</desc>
  <defs>
    <linearGradient id="bg" x1="0" y1="0" x2="1" y2="1">
      <stop offset="0%" stop-color="#eef9f2" />
      <stop offset="100%" stop-color="#d9f1e3" />
    </linearGradient>
  </defs>
  <rect width="320" height="200" rx="18" fill="url(#bg)" />

  <rect x="58" y="56" width="78" height="88" rx="10" fill="#ffffff" stroke="#4f7f68" stroke-width="3" />
  <rect x="89" y="74" width="16" height="52" rx="4" fill="#5b9478" />
  <rect x="71" y="92" width="52" height="16" rx="4" fill="#5b9478" />

  <circle cx="250" cy="108" r="16" fill="#7aa6d8" />

  <path d="M205 78 L236 98" stroke="#37608d" stroke-width="5" stroke-linecap="round" />
  <path d="M236 118 L205 138" stroke="#37608d" stroke-width="5" stroke-linecap="round" />
  <path d="M190 86 V130" stroke="#37608d" stroke-width="5" stroke-linecap="round" />

  <line x1="227" y1="97" x2="236" y2="98" stroke="#37608d" stroke-width="4" stroke-linecap="round" transform="rotate(67.5 236 98)" />
  <line x1="236" y1="98" x2="230" y2="106" stroke="#37608d" stroke-width="4" stroke-linecap="round" transform="rotate(42.5 236 98)" />
  <line x1="227" y1="119" x2="236" y2="118" stroke="#37608d" stroke-width="4" stroke-linecap="round" transform="rotate(-68.5 236 118)" />
  <line x1="236" y1="118" x2="230" y2="110" stroke="#37608d" stroke-width="4" stroke-linecap="round" transform="rotate(-46.5 236 118)" />

  <circle cx="190" cy="70" r="16" fill="#5d8cc3" />
  <circle cx="190" cy="146" r="16" fill="#4e77a8" />
</svg>
