<svg xmlns="http://www.w3.org/2000/svg" viewBox="0 0 320 200" role="img" aria-labelledby="title desc">
  <title id="title">Migration analysis icon</title>
  <desc id="desc">Buildings with directional arrows showing movement.</desc>
  <defs>
    <linearGradient id="bg" x1="0" y1="0" x2="1" y2="1">
      <stop offset="0%" stop-color="#e9faf4" />
      <stop offset="100%" stop-color="#d6f1e7" />
    </linearGradient>
  </defs>
  <rect width="320" height="200" rx="18" fill="url(#bg)" />
  <rect x="46" y="84" width="66" height="82" rx="6" fill="#4d8b76" />
  <rect x="78" y="66" width="34" height="100" rx="6" fill="#39715f" />
  <rect x="206" y="72" width="66" height="94" rx="6" fill="#5b9d87" />
  <g fill="#d8efe7">
    <rect x="58" y="96" width="10" height="10" rx="2" />
    <rect x="74" y="96" width="10" height="10" rx="2" />
    <rect x="58" y="112" width="10" height="10" rx="2" />
    <rect x="74" y="112" width="10" height="10" rx="2" />
    <rect x="218" y="86" width="10" height="10" rx="2" />
    <rect x="234" y="86" width="10" height="10" rx="2" />
    <rect x="218" y="102" width="10" height="10" rx="2" />
    <rect x="234" y="102" width="10" height="10" rx="2" />
  </g>
  <path d="M122 110 H196" stroke="#2f6757" stroke-width="8" stroke-linecap="round" />
  <path d="M182 96 L198 110 L182 124" fill="none" stroke="#2f6757" stroke-width="8" stroke-linecap="round" stroke-linejoin="round" />
  <path d="M196 132 H122" stroke="#4a8272" stroke-width="8" stroke-linecap="round" />
  <path d="M136 118 L120 132 L136 146" fill="none" stroke="#4a8272" stroke-width="8" stroke-linecap="round" stroke-linejoin="round" />
</svg>
